# xmcd
#
# Track frame offsets:
#	150
#	24234
#	39961
#	64005
#	84185
#	102066
#	118066
#	162919
#	180251
#	196523
#	201316
#	211310
#	247716
#	283381
#
# Disc length: 4258 seconds
#
# Revision: 1
# Processed by: cddbd v1.4PL0 Copyright (c) Steve Scherf et al.
# Submitted via: audiograbber 1.80.04
#
DISCID=ab10a00e
DTITLE=Marvin Gaye - The Very Best Live
DYEAR=2001
DGENRE=Blues
TTITLE0=Let's Get It On
TTITLE1=Ain't Nothing Like The Real Thing
TTITLE2=Inner City Blues (Make Me Wanna Holler)
TTITLE3=Joy
TTITLE4=What's Going On
TTITLE5=Heaven Must Have Sent Your Precious Love
TTITLE6=Sexual Healing
TTITLE7=I Heard It Through The Grapevine
TTITLE8=Come Get To This
TTITLE9=If This World Were Mine
TTITLE10=God Is My Friend
TTITLE11=Third World Girl
TTITLE12=Rockin' After Midnight
TTITLE13=Distant Lover
EXTD=
EXTT0=
EXTT1=
EXTT2=
EXTT3=
EXTT4=
EXTT5=
EXTT6=
EXTT7=
EXTT8=
EXTT9=
EXTT10=
EXTT11=
EXTT12=
EXTT13=
PLAYORDER=
